<!--?xml version="1.0" encoding="utf-8"?-->
<!-- Svg Vector Icons : http://www.onlinewebfonts.com/icon -->

<svg version="1.1" xmlns="http://www.w3.org/2000/svg" xmlns:xlink="http://www.w3.org/1999/xlink" x="0px" y="0px" viewBox="0 0 256 256" enable-background="new 0 0 256 256" xml:space="preserve">
<metadata> Svg Vector Icons : http://www.onlinewebfonts.com/icon </metadata>
<g><g><path fill="#000000" data-title="Layer 0" xs="0" d="M51.9,13.3c25.8-4,56.3-1.7,89.3-1.7c46.7,0,87.3-4.4,99.3,24.8c6.6,16.2,3.3,34.9,3.3,46.3c0,35,8.1,119.1-6.6,142.3c-2.6,4-11.5,12.1-18.2,14.9c-21.7,8.9-61.8,3.3-91,3.3c-49.5,0-98.8,8.3-112.5-24.8c-9.9-23.9-3.3-102-3.3-139c0-8.2-2.9-28.2,3.3-43C20.9,23.5,34.4,16,51.9,13.3z M185.9,102.7c18.5-61.3-72.2-45.7-114.1-46.3c0,48.5,0,97.1,0,145.6c37.5-2.6,93.5,8.4,114.2-14.9c8.7-9.8,13.7-29.9,5-48c-4.3-9-13.1-10.5-21.5-18.2C178.7,115.3,183.1,112,185.9,102.7z"/><path fill="#000000" data-title="Layer 1" xs="1" d="M104.8,79.5c12.9,4.7,37.3-2,48,5c15.6,29.4-20.2,33-48,29.8C104.8,102.7,104.8,91.1,104.8,79.5z"/><path fill="#000000" data-title="Layer 2" xs="2" d="M159.4,170.5c-11.3,9.1-34.6,6.2-54.6,6.6c0-13.2,0-26.5,0-39.7C136.5,133.9,175.4,136.9,159.4,170.5z"/></g></g>
</svg>