<?xml version="1.0" encoding="utf-8"?>
<!-- Svg Vector Icons : http://www.onlinewebfonts.com/icon -->
<!DOCTYPE svg PUBLIC "-//W3C//DTD SVG 1.1//EN" "http://www.w3.org/Graphics/SVG/1.1/DTD/svg11.dtd">
<svg version="1.1"
    xmlns="http://www.w3.org/2000/svg"
    xmlns:xlink="http://www.w3.org/1999/xlink" x="0px" y="0px" viewBox="0 0 256 256" enable-background="new 0 0 256 256" xml:space="preserve">
    <metadata> Svg Vector Icons : http://www.onlinewebfonts.com/icon </metadata>
    <g>
        <g>
            <path fill="#000000" d="M139.6,198.3c25,0,45.5-9.9,61.4-29.7l32.6,33.6C207.7,231.4,177.2,246,142,246c-35.1,0-64.1-11.1-86.8-33.3c-22.7-22.2-34.1-50.2-34.1-84c0-33.8,11.6-62.1,34.8-84.7c23.2-22.6,51.5-34,85-34c37.4,0,68.8,14.3,94,42.8l-31.7,35.9c-16.1-20-36.1-30-60.1-30c-19.1,0-35.5,6.3-49.1,18.8C80.4,89.9,73.6,106.8,73.6,128s6.4,38.2,19.3,51.1C105.7,191.9,121.3,198.3,139.6,198.3L139.6,198.3z"/>
        </g>
    </g>
</svg>