<?xml version="1.0" encoding="utf-8"?>
<!-- Svg Vector Icons : http://www.onlinewebfonts.com/icon -->
<!DOCTYPE svg PUBLIC "-//W3C//DTD SVG 1.1//EN" "http://www.w3.org/Graphics/SVG/1.1/DTD/svg11.dtd">
<svg version="1.1" xmlns="http://www.w3.org/2000/svg" xmlns:xlink="http://www.w3.org/1999/xlink" x="0px" y="0px" viewBox="0 0 256 256" enable-background="new 0 0 256 256" xml:space="preserve">
<metadata> Svg Vector Icons : http://www.onlinewebfonts.com/icon </metadata>
<g><g><path fill="#000000" d="M10,10L10,10L10,10z"/><path fill="#000000" d="M241.6,117.5l-103-103c-5.9-5.9-15.6-5.9-21.5,0L95.7,35.9L122.8,63c6.3-2.1,13.5-0.7,18.6,4.3c5,5,6.5,12.3,4.3,18.7l26.2,26.2c6.3-2.2,13.6-0.7,18.7,4.3c7.1,7.1,7.1,18.5,0,25.6c-7.1,7.1-18.5,7.1-25.6,0c-5.3-5.3-6.6-13.1-3.9-19.7L136.5,98v64.2c1.7,0.8,3.3,2,4.8,3.4c7.1,7.1,7.1,18.5,0,25.6s-18.5,7.1-25.6,0c-7.1-7.1-7.1-18.5,0-25.6c1.8-1.7,3.8-3.1,5.9-3.9V96.9c-2.1-0.9-4.2-2.2-5.9-4c-5.3-5.3-6.6-13.2-3.9-19.8L85.1,46.4L14.4,117c-5.9,5.9-5.9,15.6,0,21.5l103,103c5.9,5.9,15.6,5.9,21.5,0L241.5,139C247.5,133,247.5,123.4,241.6,117.5L241.6,117.5z"/></g></g>
</svg>