<?xml version="1.0" encoding="utf-8"?>
<!-- Svg Vector Icons : http://www.onlinewebfonts.com/icon -->
<!DOCTYPE svg PUBLIC "-//W3C//DTD SVG 1.1//EN" "http://www.w3.org/Graphics/SVG/1.1/DTD/svg11.dtd">
<svg version="1.1" xmlns="http://www.w3.org/2000/svg" xmlns:xlink="http://www.w3.org/1999/xlink" x="0px" y="0px" viewBox="0 0 256 256" enable-background="new 0 0 256 256" xml:space="preserve">
<metadata> Svg Vector Icons : http://www.onlinewebfonts.com/icon </metadata>
<g><g><path fill="#000000" d="M219.3,209.4v-99.6h-20.7c2,6.5,3.1,13.2,3.1,20.1c0,12.9-3.3,24.8-9.8,35.7c-6.5,10.9-15.5,19.5-26.7,25.9c-11.3,6.4-23.6,9.5-36.9,9.5c-20.2,0-37.4-6.9-51.8-20.8c-14.3-13.9-21.5-30.7-21.5-50.3c0-7,1-13.7,3.1-20.1H36.3v99.6c0,2.7,0.9,4.9,2.7,6.7c1.8,1.8,4,2.7,6.7,2.7h164.2c2.6,0,4.8-0.9,6.6-2.7C218.4,214.3,219.3,212.1,219.3,209.4L219.3,209.4z M175.6,127.5c0-12.7-4.6-23.5-13.9-32.5c-9.3-9-20.5-13.4-33.6-13.4c-13,0-24.2,4.5-33.4,13.4c-9.3,9-13.9,19.8-13.9,32.5c0,12.7,4.6,23.5,13.9,32.5c9.3,9,20.4,13.4,33.4,13.4c13.1,0,24.3-4.5,33.6-13.4C171,151.1,175.6,140.2,175.6,127.5z M219.3,72.2V46.9c0-2.9-1-5.3-3.1-7.4c-2-2.1-4.6-3.2-7.5-3.2h-26.7c-3,0-5.5,1.1-7.5,3.2c-2,2.1-3.1,4.6-3.1,7.4v25.4c0,3,1,5.5,3.1,7.5s4.6,3.1,7.5,3.1h26.7c3,0,5.5-1,7.5-3.1S219.3,75.2,219.3,72.2z M246,40.3v175.5c0,8.3-3,15.4-8.9,21.4S224,246,215.7,246H40.3c-8.3,0-15.4-3-21.4-8.9S10,224,10,215.7V40.3c0-8.3,3-15.4,8.9-21.4S32,10,40.3,10h175.5c8.3,0,15.4,3,21.4,8.9S246,32,246,40.3z"/></g></g>
</svg>