<?xml version="1.0" encoding="utf-8"?>
<!-- Svg Vector Icons : http://www.onlinewebfonts.com/icon -->
<!DOCTYPE svg PUBLIC "-//W3C//DTD SVG 1.1//EN" "http://www.w3.org/Graphics/SVG/1.1/DTD/svg11.dtd">
<svg version="1.1" xmlns="http://www.w3.org/2000/svg" xmlns:xlink="http://www.w3.org/1999/xlink" x="0px" y="0px" viewBox="0 0 256 256" enable-background="new 0 0 256 256" xml:space="preserve">
<metadata> Svg Vector Icons : http://www.onlinewebfonts.com/icon </metadata>
<g><g><g><path fill="#000000" d="M151.5,13.3c0.6,7.2-1.4,16.4-5,23.4C144,41.5,139,46.1,128,54c-16.8,12-23.7,18.8-28.5,28.3c-3.3,6.6-4,12.2-2.3,19.1c2.4,9.5,11.2,22.3,21.5,31.4c4.4,3.8,4.6,3.9,3,0.8c-2.1-4.1-6.3-15-7.9-20.4c-1.8-6.2-3.2-14.4-3.2-18.9c0-3.1,0.2-4,1.5-6.5c1.9-3.9,7-8.9,18.4-18.2c14.3-11.7,19.9-17.7,23.6-25.3c2.5-5.1,3.4-9.4,3.1-15.2c-0.3-5.9-1.3-9.6-3.9-14.8l-2-4.2L151.5,13.3z"/><path fill="#000000" d="M165.4,62.6c-19.6,9-32.4,18.7-36.4,27.6c-1,2.2-1.2,3.1-1.1,7.6c0,8.9,2.3,14.6,9.4,24c2.6,3.4,4.3,6.1,4.5,7.1c0.6,2.9-0.1,8-1.6,12c-0.8,2.2-1.3,4-1.2,4.1c0.1,0.1,2.2-1.8,4.7-4.3c7.2-7.3,9.6-12.4,9.3-19.3c-0.3-4.9-1.4-7.6-6.1-15c-4.3-6.9-5.1-9-4.8-13.2c0.4-5.1,2.7-8.6,10.3-16.2c3.6-3.6,9.3-8.8,12.8-11.7c3.5-2.8,6.2-5.2,6-5.2S168.4,61.2,165.4,62.6z"/><path fill="#000000" d="M194.1,136.5c-5.7,1.1-12,3.3-11,3.9c0.4,0.2,1.3,0.4,2,0.4c5,0,12.4,3,15.4,6c4.9,5,4.1,10.9-2.5,19c-3.6,4.4-11.8,11.7-18.1,16.2l-1.2,0.8l1.4-0.3c3.6-0.8,11.6-3.7,16.3-6c12-5.8,18-12.2,18.4-20.2c0.5-8.3-3.4-15.8-9.6-18.6C202.3,136.6,197,135.9,194.1,136.5z"/><path fill="#000000" d="M87.5,140c-13.4,1-23.1,3.5-26.1,6.7c-1.3,1.4-1.5,4.2-0.4,6.1c2.3,3.9,11.7,7.2,25.1,8.8c6.8,0.8,29.2,1.1,37.6,0.5c20.8-1.5,38.2-6,48.5-12.4c2.7-1.7,2.6-1.8-3-0.6c-12.8,2.6-34,4.2-55.8,4.2c-16.6,0-31.1-1.1-35.2-2.7c-4.5-1.8,0.6-5.8,11.2-8.7c9.2-2.6,8.4-2.3,5.8-2.3C93.9,139.6,90.4,139.8,87.5,140z"/><path fill="#000000" d="M84.9,168.7c-3.6,1.3-7,3.3-7.6,4.4c-2.1,3.9,4,7.9,15.7,10.4c12.6,2.6,26,2.7,44.5,0.2c11.4-1.5,30.6-5.3,30.1-5.8c-0.1-0.1-2.3-1.7-4.8-3.4c-3.6-2.6-4.8-3.1-5.7-2.9c-2.8,0.7-12.6,2.5-17.1,3.1c-9.6,1.4-15.6,1.8-26.3,1.8c-22.5,0-31.9-2.7-26.7-7.6C88.8,167.4,88.6,167.3,84.9,168.7z"/><path fill="#000000" d="M91.9,193c-5.2,1.1-8.1,3.3-8.1,6.4c0,7,13.2,11.3,36.7,11.9c10.9,0.3,17-0.2,26-2c5.4-1.1,16.8-4.5,17.3-5.2c0.1-0.2-2.5-1.9-5.8-3.9l-6-3.6l-3.4,0.6c-17.8,3-22.8,3.5-32.6,2.8c-12.2-0.8-20.8-2.4-21.6-4.1c-0.3-0.6-0.3-1.2,0.2-2C95.4,192.3,95.3,192.3,91.9,193z"/><path fill="#000000" d="M69.3,209.9c-0.7,0.1-3.6,0.4-6.4,0.7c-9.7,1-17,3-19.9,5.5c-2.8,2.4-2.4,5.7,1,8.7c5.4,4.8,19.2,7.6,43.8,8.9c13.4,0.7,48,0.3,58.4-0.7c21-2,35.6-4.9,46.5-9.1c9.8-3.8,12.7-7.6,9.2-11.7l-1.1-1.2l0.2,1.7c0.1,1.3,0,1.9-0.9,2.8c-4,3.9-28,8.6-56.9,11c-9,0.7-39.8,0.7-48.9,0c-19.7-1.7-32.5-3.9-38-6.7c-4.2-2.1,0.6-5.4,12-8.4C73.8,209.8,74.2,209.3,69.3,209.9z"/><path fill="#000000" d="M210.5,225.8c-3.2,2.5-11.5,6.5-18,8.6c-16.9,5.6-32.9,6.8-80.1,6.3c-15.4-0.1-29.8-0.4-32.1-0.5l-4.2-0.2l2.8,0.6c4.3,1,17.3,2.9,25.2,3.7c25.5,2.5,50.6,2,74.5-1.7c15.1-2.3,23.7-5.6,29.8-11.5c2.2-2.2,5.1-6.6,4.6-7.1C212.9,224.1,211.8,224.9,210.5,225.8z"/></g></g></g>
</svg>