<?xml version="1.0" encoding="utf-8"?>
<!-- Svg Vector Icons : http://www.onlinewebfonts.com/icon -->
<!DOCTYPE svg PUBLIC "-//W3C//DTD SVG 1.1//EN" "http://www.w3.org/Graphics/SVG/1.1/DTD/svg11.dtd">
<svg version="1.1" xmlns="http://www.w3.org/2000/svg" xmlns:xlink="http://www.w3.org/1999/xlink" x="0px" y="0px" viewBox="0 0 256 256" enable-background="new 0 0 256 256" xml:space="preserve">
<metadata> Svg Vector Icons : http://www.onlinewebfonts.com/icon </metadata>
<g><g><g><path fill="#000000" d="M147.2,19.3c-5.7,7.8-8.5,14.2-9.6,21.7c-1.3,9,0.1,18.7,4.3,27.5c7.8,16.8,25.1,30.4,43,33.7c4.9,0.9,17.7,0.9,22-0.1c8.7-1.9,15.6-5.4,21.8-11.2c2.7-2.5,7.4-8.6,9.2-12l1.3-2.3l-2.1,2.3c-9,9.8-22.6,13.4-39.7,10.5c-13.3-2.3-24.2-7.9-33.6-17.1c-16.1-16-21.6-37.9-13.9-55.6c0.5-1,0.8-1.9,0.7-1.9C150.5,14.8,148.9,16.8,147.2,19.3z"/><path fill="#000000" d="M94.7,35.1c-6.6,9.4-9.2,13.8-11.6,19.8c-5.1,12.8-5.8,28.9-2,43.7c2.4,9.5,6.3,18,12.5,27.3c4,5.9,5.6,7.9,10.8,13.1c11.9,12,24.9,20,40.4,25.1c12.6,4.1,32,4.6,47.5,1.3c21.2-4.6,38.7-17.5,49.5-36.5c1.8-3.1,4.3-8.6,4.3-9.3c0-0.2-0.8,0.7-1.8,2c-5.8,7.6-15.9,15.4-25.4,19.5c-10.8,4.7-21.3,6.6-33.9,6.2c-45.3-1.4-85.8-37.3-91.1-80.8c-1.5-12.5,1-27.5,6.3-38.2c0.6-1.1,1-2.1,1-2.1C101,26.2,98.1,30.2,94.7,35.1z"/><path fill="#000000" d="M33,57c-9.1,11.6-10.9,14.1-14,20.4c-6.5,13.2-9.5,27.6-8.9,42.7c1.8,47.2,33.8,91.6,80.6,111.8c12.1,5.2,21,7.5,35,8.8c8.7,0.8,24.4,0.6,31.8-0.6c20.2-3,37.2-10.2,52.1-21.9c11.9-9.4,24.7-25.5,30-37.8l1-2.2l-1.8,2c-10.8,12.5-23.1,20.8-38.8,26.3c-11.9,4.1-23.2,5.9-37.4,5.9c-15.3,0-27.3-1.7-39.6-5.8c-16.7-5.5-32.3-14.1-45.9-25.5c-5.5-4.7-14.5-13.8-18.8-19.2c-15.3-19.1-24.2-40.4-26.5-63.7c-0.6-5.4-0.2-18.5,0.6-23.7c1.3-8.3,3.9-17.2,7-23.9c0.9-1.9,1.6-3.4,1.5-3.4S37.2,51.7,33,57z"/></g></g></g>
</svg>