<?xml version="1.0" encoding="utf-8"?>
<!-- Svg Vector Icons : http://www.onlinewebfonts.com/icon -->
<!DOCTYPE svg PUBLIC "-//W3C//DTD SVG 1.1//EN" "http://www.w3.org/Graphics/SVG/1.1/DTD/svg11.dtd">
<svg version="1.1" xmlns="http://www.w3.org/2000/svg" xmlns:xlink="http://www.w3.org/1999/xlink" x="0px" y="0px" viewBox="0 0 256 256" enable-background="new 0 0 256 256" xml:space="preserve">
<metadata> Svg Vector Icons : http://www.onlinewebfonts.com/icon </metadata>
<g><g><path fill="#000000" d="M246,12.5c0,77,0,154,0,231c-78.6,0-157.2,0-235.8,0c0.8-76.6-1.6-156.4,1.2-231C89.6,12.5,167.8,12.5,246,12.5z M96.1,70.6c-3.2,31.1,12.5,99.8-29,81c0,6.5,0,12.9,0,19.3c60.3,17.4,51.3-49.8,50.8-100.3C110.6,70.6,103.3,70.6,96.1,70.6z M138.4,98.4c-10,13.6-0.4,29.7,7.2,35.1c7.3,5.1,24.3,8.6,23,18.1c-1.9,13.1-25,6.5-33.9,1.2c0.5,5.5-1.2,13.3,1.2,16.9c20.3,7.9,46.8,3.1,50.8-12.1c8.9-33.5-36.6-29.8-33.9-47.1c1.8-11.2,22.3-8.1,30.2-2.4c0-5.6,0-11.3,0-16.9C164.4,86.9,145.8,88.4,138.4,98.4z"/></g></g>
</svg>