<?xml version="1.0" encoding="utf-8"?>
<!-- Svg Vector Icons : http://www.onlinewebfonts.com/icon -->
<!DOCTYPE svg PUBLIC "-//W3C//DTD SVG 1.1//EN" "http://www.w3.org/Graphics/SVG/1.1/DTD/svg11.dtd">
<svg version="1.1" xmlns="http://www.w3.org/2000/svg" xmlns:xlink="http://www.w3.org/1999/xlink" x="0px" y="0px" viewBox="0 0 256 256" enable-background="new 0 0 256 256" xml:space="preserve">
<metadata> Svg Vector Icons : http://www.onlinewebfonts.com/icon </metadata>
<g><g><path fill="#000000" d="M35.3,112.2c-2.2-5.3-5-9.6-6.5-10.7c-1.5-1.1-4.5-7.3-4.5-7.3s0,9.8,0,20.9l-0.1-20.9c0,0-3,6.2-4.5,7.3c-1.5,1.1-4.3,5.4-6.5,10.7c-2.2,5.3-5.2,18.7-1.8,26.6c3.3,7.8,10.3,14.4,10.4,14.5c0.6,2.2,1.6,8.2,1.3,8.5h3.2l0.5-8.6c1.2-1.2,7.1-7.3,10.2-14.3C40.5,130.9,37.5,117.5,35.3,112.2z"/><path fill="#000000" d="M54.8,128.8c1.6-1.6,2.5-2.5,2.8-2.7c0.7-0.6,1.5-1.1,2.3-1.4c0.8-0.3,1.6-0.5,2.4-0.5c1.3,0,2.5,0.4,3.5,1.2c1,0.8,1.6,1.9,2,3.4c1.6-1.9,3-3.1,4.1-3.7c1.1-0.6,2.3-0.9,3.4-0.9c1.2,0,2.2,0.3,3.1,0.9c0.9,0.6,1.6,1.5,2.1,2.9c0.3,0.9,0.5,2.3,0.5,4.3v9.3c0,1.3,0.1,2.3,0.3,2.8c0.2,0.3,0.5,0.7,0.9,0.9c0.4,0.2,1.1,0.4,2.1,0.4v0.8H73.5v-0.8H74c0.9,0,1.6-0.2,2.2-0.6c0.4-0.2,0.6-0.6,0.8-1.2c0.1-0.3,0.1-1,0.1-2.3v-9.3c0-1.8-0.2-3-0.6-3.7c-0.6-1-1.6-1.5-2.9-1.5c-0.8,0-1.7,0.2-2.5,0.6c-0.8,0.4-1.9,1.2-3.1,2.3l0,0.3l0,1v10.3c0,1.5,0.1,2.4,0.2,2.7c0.2,0.4,0.5,0.7,0.9,0.9c0.5,0.2,1.2,0.4,2.3,0.4v0.8H60.5v-0.8c1.2,0,2-0.1,2.5-0.4c0.4-0.3,0.7-0.7,0.9-1.3c0.1-0.3,0.1-1,0.1-2.3v-9.3c0-1.8-0.3-3-0.8-3.8c-0.7-1-1.7-1.5-2.9-1.5c-0.8,0-1.7,0.2-2.5,0.7c-1.3,0.7-2.3,1.5-3,2.3v11.6c0,1.4,0.1,2.3,0.3,2.7c0.2,0.4,0.5,0.7,0.9,1s1.2,0.3,2.3,0.3v0.8H47.6v-0.8c1,0,1.7-0.1,2.1-0.3c0.4-0.2,0.7-0.6,0.9-1c0.2-0.5,0.3-1.4,0.3-2.7v-8.3c0-2.4-0.1-3.9-0.2-4.6c-0.1-0.5-0.3-0.9-0.5-1.1c-0.2-0.2-0.6-0.3-1-0.3c-0.4,0-1,0.1-1.6,0.4l-0.4-0.8l6.5-2.6h1L54.8,128.8L54.8,128.8z"/><path fill="#000000" d="M96.4,124.2c3.3,0,5.9,1.2,7.9,3.7c1.7,2.1,2.5,4.6,2.5,7.3c0,1.9-0.5,3.9-1.4,5.9c-0.9,2-2.2,3.5-3.8,4.5c-1.6,1-3.4,1.5-5.4,1.5c-3.3,0-5.8-1.3-7.8-3.9c-1.6-2.2-2.4-4.6-2.4-7.3c0-2,0.5-3.9,1.5-5.9c1-2,2.3-3.4,3.9-4.3C92.9,124.7,94.6,124.2,96.4,124.2z M95.6,125.8c-0.8,0-1.7,0.2-2.5,0.7c-0.8,0.5-1.5,1.4-2,2.6c-0.5,1.2-0.8,2.8-0.8,4.8c0,3.1,0.6,5.9,1.9,8.1c1.3,2.3,2.9,3.4,4.9,3.4c1.5,0,2.8-0.6,3.8-1.9c1-1.3,1.5-3.4,1.5-6.5c0-3.8-0.8-6.8-2.5-9C98.8,126.5,97.4,125.8,95.6,125.8z"/><path fill="#000000" d="M116.2,128.8c2.5-3,4.9-4.6,7.2-4.6c1.2,0,2.2,0.3,3,0.9c0.8,0.6,1.5,1.6,2,2.9c0.3,0.9,0.5,2.4,0.5,4.3v9.2c0,1.4,0.1,2.3,0.3,2.8c0.2,0.4,0.5,0.7,0.8,0.9c0.4,0.2,1.1,0.3,2.1,0.3v0.8h-10.7v-0.8h0.5c1,0,1.7-0.1,2.1-0.5c0.4-0.3,0.7-0.7,0.8-1.3c0.1-0.2,0.1-1,0.1-2.2v-8.8c0-2-0.3-3.4-0.8-4.3c-0.5-0.9-1.4-1.3-2.6-1.3c-1.9,0-3.7,1-5.6,3.1v11.4c0,1.5,0.1,2.4,0.3,2.7c0.2,0.5,0.5,0.8,0.9,1c0.4,0.2,1.2,0.3,2.3,0.3v0.8h-10.7v-0.8h0.5c1.1,0,1.8-0.3,2.2-0.8c0.4-0.6,0.6-1.6,0.6-3.2v-8c0-2.6,0-4.2-0.2-4.7c-0.1-0.6-0.3-0.9-0.5-1.2c-0.2-0.2-0.6-0.3-1-0.3c-0.4,0-1,0.1-1.6,0.4l-0.4-0.8l6.5-2.6h1L116.2,128.8L116.2,128.8z"/><path fill="#000000" d="M139.8,138.6c-1.3-0.7-2.3-1.5-3-2.7s-1.1-2.4-1.1-3.8c0-2.1,0.8-4,2.4-5.5c1.6-1.5,3.7-2.3,6.2-2.3c2,0,3.8,0.5,5.3,1.5h4.6c0.7,0,1.1,0,1.2,0c0.1,0,0.2,0.1,0.2,0.2c0.1,0.1,0.1,0.4,0.1,0.7c0,0.4,0,0.7-0.1,0.8c0,0.1-0.1,0.1-0.2,0.2c-0.1,0-0.5,0.1-1.2,0.1h-2.8c0.9,1.1,1.3,2.6,1.3,4.3c0,2-0.8,3.7-2.3,5.2c-1.5,1.4-3.6,2.1-6.2,2.1c-1.1,0-2.2-0.2-3.3-0.5c-0.7,0.6-1.2,1.1-1.4,1.6c-0.2,0.5-0.4,0.8-0.4,1.1c0,0.3,0.1,0.5,0.4,0.8c0.3,0.2,0.8,0.4,1.5,0.5c0.4,0.1,1.5,0.1,3.3,0.2c3.2,0.1,5.3,0.2,6.3,0.3c1.5,0.2,2.6,0.7,3.5,1.6c0.9,0.9,1.3,2,1.3,3.3c0,1.8-0.8,3.4-2.5,5c-2.5,2.3-5.6,3.4-9.6,3.4c-3,0-5.6-0.7-7.7-2c-1.2-0.8-1.8-1.6-1.8-2.5c0-0.4,0.1-0.7,0.3-1.1c0.3-0.6,0.8-1.4,1.6-2.4c0.1-0.1,0.9-1,2.4-2.6c-0.8-0.5-1.4-0.9-1.7-1.3s-0.5-0.8-0.5-1.3c0-0.6,0.2-1.2,0.7-1.9C137.2,141,138.2,139.9,139.8,138.6z M139.6,146.4c-0.7,0.8-1.3,1.5-1.7,2.2c-0.4,0.7-0.6,1.3-0.6,1.9c0,0.7,0.5,1.4,1.4,2c1.6,1,3.8,1.5,6.8,1.5c2.8,0,4.9-0.5,6.2-1.5c1.3-1,2-2.1,2-3.2c0-0.8-0.4-1.4-1.2-1.7c-0.8-0.3-2.4-0.6-4.8-0.6C144.2,146.9,141.5,146.7,139.6,146.4z M143.9,125.4c-1.2,0-2.1,0.5-2.9,1.4c-0.8,0.9-1.2,2.3-1.2,4.3c0,2.5,0.5,4.4,1.6,5.8c0.8,1,1.9,1.5,3.1,1.5c1.2,0,2.2-0.5,2.9-1.3c0.8-0.9,1.2-2.3,1.2-4.2c0-2.5-0.5-4.5-1.6-5.9C146.2,125.9,145.2,125.4,143.9,125.4z"/><path fill="#000000" d="M168.7,124.2c3.3,0,5.9,1.2,7.9,3.7c1.7,2.1,2.5,4.6,2.5,7.3c0,1.9-0.5,3.9-1.4,5.9c-0.9,2-2.2,3.5-3.8,4.5c-1.6,1-3.4,1.5-5.4,1.5c-3.3,0-5.8-1.3-7.8-3.9c-1.6-2.2-2.4-4.6-2.4-7.3c0-2,0.5-3.9,1.5-5.9c1-2,2.3-3.4,3.9-4.3C165.2,124.7,166.9,124.2,168.7,124.2z M168,125.8c-0.8,0-1.7,0.2-2.5,0.7c-0.8,0.5-1.5,1.4-2,2.6c-0.5,1.2-0.8,2.8-0.8,4.8c0,3.1,0.6,5.9,1.9,8.1c1.3,2.3,2.9,3.4,4.9,3.4c1.5,0,2.8-0.6,3.8-1.9c1-1.3,1.5-3.4,1.5-6.5c0-3.8-0.8-6.8-2.5-9C171.1,126.5,169.7,125.8,168,125.8z"/><path fill="#000000" d="M181.4,146.4v-0.9h1.1c0.9,0,1.6-0.1,2.1-0.4c0.5-0.3,0.9-0.7,1.1-1.2c0.1-0.3,0.2-1.3,0.2-3v-21c0-1.6-0.1-2.6-0.3-3.1c-0.2-0.4-0.5-0.8-1-1.1c-0.5-0.3-1.2-0.5-2.1-0.5h-1.1v-0.9h14.3c3.8,0,6.9,0.5,9.2,1.6c2.8,1.3,5,3.2,6.5,5.8c1.5,2.6,2.2,5.5,2.2,8.7c0,2.2-0.4,4.3-1.1,6.2c-0.7,1.9-1.7,3.4-2.8,4.7c-1.2,1.2-2.5,2.2-4,3c-1.5,0.7-3.3,1.3-5.5,1.7c-1,0.2-2.5,0.3-4.5,0.3L181.4,146.4L181.4,146.4z M193.5,116.3v24.9c0,1.3,0.1,2.1,0.2,2.4c0.1,0.3,0.3,0.5,0.6,0.7c0.4,0.2,1,0.4,1.8,0.4c2.6,0,4.6-0.9,6-2.7c1.9-2.4,2.8-6.2,2.8-11.2c0-4.1-0.7-7.4-1.9-9.8c-1-1.9-2.3-3.2-3.9-3.9C198,116.5,196.2,116.3,193.5,116.3z"/><path fill="#000000" d="M237,129.5c3,0.7,5.2,1.6,6.4,2.6c1.8,1.4,2.6,3.3,2.6,5.6c0,2.4-1,4.4-2.9,5.9c-2.4,1.9-5.8,2.8-10.3,2.8h-16.2v-0.9c1.5,0,2.5-0.1,3-0.4s0.9-0.6,1.1-1.1s0.3-1.5,0.3-3.3v-20.7c0-1.7-0.1-2.8-0.3-3.3c-0.2-0.5-0.6-0.8-1.1-1.1s-1.5-0.4-3-0.4v-0.9h15.3c3.7,0,6.2,0.3,7.8,1c1.5,0.7,2.7,1.6,3.6,2.9c0.9,1.3,1.3,2.7,1.3,4.1c0,1.5-0.6,2.9-1.7,4.1C241.8,127.8,239.8,128.8,237,129.5z M228.4,130.7v10.2l0,1.2c0,0.8,0.2,1.5,0.6,1.9c0.4,0.4,1.1,0.7,1.9,0.7c1.3,0,2.4-0.3,3.5-0.8s1.9-1.4,2.4-2.4c0.6-1.1,0.8-2.2,0.8-3.5c0-1.5-0.3-2.8-1-4c-0.7-1.2-1.6-2-2.8-2.5C232.6,130.9,230.8,130.7,228.4,130.7z M228.4,128.9c2.2,0,3.9-0.2,4.9-0.7c1.1-0.5,1.9-1.2,2.4-2.1c0.6-0.9,0.8-2.1,0.8-3.5c0-1.4-0.3-2.6-0.8-3.5c-0.6-0.9-1.3-1.6-2.4-2.1s-2.7-0.7-5-0.7V128.9L228.4,128.9z"/></g></g>
</svg>