<!--?xml version="1.0" encoding="utf-8"?-->
<!-- Svg Vector Icons : http://www.onlinewebfonts.com/icon -->

<svg version="1.1" xmlns="http://www.w3.org/2000/svg" xmlns:xlink="http://www.w3.org/1999/xlink" x="0px" y="0px" viewBox="0 0 256 256" enable-background="new 0 0 256 256" xml:space="preserve">
<metadata> Svg Vector Icons : http://www.onlinewebfonts.com/icon </metadata>
<g><g><path fill="#000000" data-title="Layer 0" xs="0" d="M173.4,116.5h-6.7l-5.3,19.6h4.8c5.2,0,9.1-1,11.7-2.9c2.6-1.9,4.3-4.5,5.2-7.7c0.8-3,0.5-5.2-0.8-6.7C180.9,117.3,177.8,116.5,173.4,116.5z"/><path fill="#000000" data-title="Layer 1" xs="1" d="M91.7,116.5H85l-5.3,19.6h4.8c5.2,0,9.1-1,11.7-2.9c2.6-1.9,4.3-4.5,5.2-7.7c0.8-3,0.5-5.2-0.8-6.7C99.2,117.3,96.1,116.5,91.7,116.5z"/><path fill="#000000" data-title="Layer 2" xs="2" d="M128,65.8C62.8,65.8,10,93.6,10,128c0,34.4,52.8,62.2,118,62.2c65.2,0,118-27.9,118-62.2C246,93.6,193.2,65.8,128,65.8z M101.9,139.6c-4.8,3.4-10.7,5.2-17.6,5.2h-6.9l-5.5,20.6h-9.8l15.4-57.4h16.2c7.5,0,12.6,1.6,15.5,4.9s3.6,7.8,2.2,13.2C109.9,131.6,106.7,136.1,101.9,139.6z M141.8,119.2c-0.5-0.8-3.6-1.8-7-1.8H126l-8.3,30.9h-9.4l16-59.8h9.4l-5.4,20.1c2.6,0,7.1-0.1,10.3-0.1c4.6,0,10.1,1.4,12,4.7c1.8,3,2,7.2,0.5,12.6l-6,22.6h-9.4l5.3-19.6C142.7,122.2,142.2,119.9,141.8,119.2z M193.1,126.1c-1.5,5.5-4.6,10-9.5,13.5c-4.8,3.4-10.7,5.2-17.6,5.2h-6.9l-5.5,20.6h-9.8l15.4-57.4h16.2c7.5,0,12.6,1.6,15.5,4.9C193.8,116.2,194.5,120.6,193.1,126.1z"/></g></g>
</svg>