<?xml version="1.0" encoding="utf-8"?>
<!-- Svg Vector Icons : http://www.onlinewebfonts.com/icon -->
<!DOCTYPE svg PUBLIC "-//W3C//DTD SVG 1.1//EN" "http://www.w3.org/Graphics/SVG/1.1/DTD/svg11.dtd">
<svg version="1.1" xmlns="http://www.w3.org/2000/svg" xmlns:xlink="http://www.w3.org/1999/xlink" x="0px" y="0px" viewBox="0 0 256 256" enable-background="new 0 0 256 256" xml:space="preserve">
<metadata> Svg Vector Icons : http://www.onlinewebfonts.com/icon </metadata>
<g><g><path fill="#000000" d="M126.6,8.7c-9.7,0-19,0.9-27.2,2.3c-24.1,4.3-28.5,13.2-28.5,29.6v21.7h56.9v7.2H70.9H49.6c-16.5,0-31,9.9-35.6,28.8c-5.2,21.7-5.5,35.2,0,57.8c4,16.9,13.7,28.8,30.2,28.8h19.6v-26c0-18.8,16.3-35.3,35.6-35.3h56.9c15.8,0,28.5-13,28.5-28.9V40.6c0-15.4-13-27-28.5-29.6C146.5,9.4,136.3,8.7,126.6,8.7z M95.8,26.2c5.9,0,10.7,4.9,10.7,10.9c0,6-4.8,10.8-10.7,10.8c-5.9,0-10.7-4.8-10.7-10.8C85.1,31,89.9,26.2,95.8,26.2z"/><path fill="#000000" d="M191.8,69.5v25.3c0,19.6-16.6,36.1-35.6,36.1H99.4c-15.6,0-28.5,13.3-28.5,28.9V214c0,15.4,13.4,24.5,28.5,28.9c18,5.3,35.3,6.3,56.9,0c14.3-4.1,28.5-12.5,28.5-28.9v-21.7h-56.9v-7.2h56.9h28.5c16.5,0,22.7-11.5,28.5-28.8c5.9-17.8,5.7-35,0-57.8c-4.1-16.5-11.9-28.8-28.5-28.8L191.8,69.5L191.8,69.5z M159.8,206.8c5.9,0,10.7,4.8,10.7,10.8c0,6-4.8,10.9-10.7,10.9c-5.9,0-10.7-4.9-10.7-10.9C149.1,211.6,154,206.8,159.8,206.8z"/></g></g>
</svg>