<?xml version="1.0" encoding="utf-8"?>
<!-- Svg Vector Icons : http://www.onlinewebfonts.com/icon -->
<!DOCTYPE svg PUBLIC "-//W3C//DTD SVG 1.1//EN" "http://www.w3.org/Graphics/SVG/1.1/DTD/svg11.dtd">
<svg version="1.1" xmlns="http://www.w3.org/2000/svg" xmlns:xlink="http://www.w3.org/1999/xlink" x="0px" y="0px" viewBox="0 0 256 256" enable-background="new 0 0 256 256" xml:space="preserve">
<metadata> Svg Vector Icons : http://www.onlinewebfonts.com/icon </metadata>
<g><g><path fill="#000000" d="M145,192.1c-13.9,7.3-21.6,7.2-32.6,1.9c-11-5.3-102.4-43.5-102.4-43.5l0,0v27.7c0,2.4,3.3,4.9,9.5,7.9c12.5,6,81.9,34,92.8,39.3c11,5.3,18.7,5.3,32.6-1.9c13.9-7.3,79.1-34,91.7-40.6l0,0c6.4-3.3,9.2-5.9,9.2-8.3c0-2.2,0-27.3,0-27.3h0C245.9,147.2,158.9,184.8,145,192.1z"/><path fill="#000000" d="M145,153.1c-13.9,7.3-21.6,7.2-32.6,1.9c-11-5.3-102.4-43.5-102.4-43.5l0,0v27.7c0,2.4,3.3,4.9,9.5,7.9c12.5,6,81.9,34,92.8,39.3c11,5.3,18.7,5.3,32.6-1.9c13.9-7.3,79.1-34,91.7-40.6c6.4-3.3,9.2-5.9,9.2-8.3c0-2.2,0-27.3,0-27.3h0C245.9,108.2,158.9,145.9,145,153.1z"/><path fill="#000000" d="M246,71.8c0.1-2.4-3.1-4.5-9.4-6.8c-12.3-4.5-77.1-30.3-89.5-34.8c-12.4-4.6-17.5-4.4-32.1,0.9c-14.6,5.2-83.6,32.3-95.9,37.1c-6.2,2.4-9.2,4.7-9,7.1v0v27.3c0,0,91.4,38.5,102.4,43.8c11,5.3,18.7,5.3,32.6-1.9C159,137,246,98.7,246,98.7L246,71.8L246,71.8L246,71.8z M215.4,72.5l-35.8,14.1l-32.3-12.8l35.8-14.2L215.4,72.5z M149.2,86l-16.5,24.2L94.5,94.4L149.2,86z M120.5,49.1l-5.3-9.8l16.5,6.5l15.5-5.1L143,50.8l15.9,5.9l-20.4,2.1l-4.6,11.1l-7.4-12.3l-23.6-2.1L120.5,49.1z M79.8,62.8c16.1,0,29.2,5.1,29.2,11.3c0,6.2-13.1,11.3-29.2,11.3c-16.1,0-29.2-5.1-29.2-11.3C50.6,68,63.7,62.8,79.8,62.8z"/></g></g>
</svg>