<!--?xml version="1.0" encoding="utf-8"?-->
<!-- Svg Vector Icons : http://www.onlinewebfonts.com/icon -->

<svg version="1.1" xmlns="http://www.w3.org/2000/svg" xmlns:xlink="http://www.w3.org/1999/xlink" x="0px" y="0px" viewBox="0 0 256 256" enable-background="new 0 0 256 256" xml:space="preserve">
<metadata> Svg Vector Icons : http://www.onlinewebfonts.com/icon </metadata>
<g><g><g><path fill="#000000" data-title="Layer 0" xs="0" d="M141,57c-25.6,25.6-47,46.5-47.6,46.5c-0.7,0-14.4-10.3-30.5-22.9L33.5,57.8l-11,5.5c-6,3-11.3,6-11.7,6.6c-0.4,0.6-0.8,26.8-0.8,58.3c0,42.9,0.3,57.4,1.2,58c0.6,0.4,5.9,3.3,11.7,6.3l10.6,5.5l29.3-22.8c16.1-12.5,29.8-22.7,30.5-22.7c0.6,0,22.1,20.9,47.7,46.5l46.5,46.5l29.3-11.7l29.2-11.7v-94.2V33.7l-29-11.6c-15.9-6.4-29.1-11.6-29.2-11.6C187.6,10.5,166.6,31.4,141,57z M188,128c0,32.8-0.3,48.5-1,48.5c-1.9,0-61.5-47.1-61.5-48.6c0-1.6,59.2-48.3,61.3-48.4C187.7,79.5,188,89.8,188,128z M51.6,109.6c9.3,9.3,17.1,17.5,17.3,18.1c0.4,1.3-32.9,34.8-34.6,34.8c-1,0-1.3-7.5-1.3-35c0-19.3,0.4-35,0.9-35C34.3,92.5,42.3,100.2,51.6,109.6z"/></g></g></g>
</svg>