<!--?xml version="1.0" encoding="utf-8"?-->
<!-- Svg Vector Icons : http://www.onlinewebfonts.com/icon -->

<svg version="1.1" xmlns="http://www.w3.org/2000/svg" xmlns:xlink="http://www.w3.org/1999/xlink" x="0px" y="0px" viewBox="0 0 256 256" enable-background="new 0 0 256 256" xml:space="preserve">
<metadata> Svg Vector Icons : http://www.onlinewebfonts.com/icon </metadata>
<g> <path fill="#000000" data-title="Layer 1" xs="1" d="M128,8.9h91.9c3.9,0,7.7,0.3,11.3,1.5c8,2.4,12.2,8.2,13.9,16.1c0.7,3.1,0.9,6.3,0.9,9.5 c0.1,21.5,0.1,43,0.1,64.5c0,39.1,0,78.3-0.1,117.4c0,5.5-0.3,11-3,16c-3,5.5-7.1,9.9-13.3,11.8c-1.1,0.3-2.3,0.7-3.5,0.7 c-2.7,0-5.2,0.7-7.9,0.7c-60,0-120,0-179.9-0.1c-4.9,0-9.8-0.4-14.5-2.3c-0.9-0.4-1.9-0.7-2.7-1.4c-5.9-4.5-9.9-10.1-10.8-17.7 c-0.3-2.7-0.4-5.5-0.4-8.2c0-60.9,0-121.8,0.1-182.7c0-3.5,0-7.1,1.1-10.5c2.9-9,9.2-13.9,18.6-14.9c2.2-0.2,4.4-0.4,6.6-0.4 C66.9,8.9,97.4,8.9,128,8.9z M128.9,160.4c0.6,3.6,1.1,6.8,2.2,9.8c6.6,18.6,26.3,33.9,51.9,27.7c18.4-4.4,31.7-21.4,32.3-40.3 c0.3-9-1.9-17.4-6.8-25c-0.8-1.3-0.9-2.3-0.3-3.8c3-6.4,5.1-13.1,6.2-20.1c1.1-7,1.3-14,0-21c-3.2-16.6-20-34.4-42.8-34.2 c-22.4,0.2-38.3,17.1-41.7,33.3c-0.4,1.9-0.7,3.9-1.2,6.3c-0.3-1.3-0.5-2.2-0.7-3.1c-2.7-17.8-19.7-33.6-38-35.4 c-20.9-2-36.5,9.9-43.6,23.9c-2.4,4.8-3.7,9.9-4.1,15.2c-0.8,10,1.4,19.3,6.9,27.6c0.6,1,0.7,1.7,0.1,2.7c-3.6,7-6,14.5-6.8,22.4 c-0.8,7.4-1,14.8,1.1,22c5.8,20,25.1,32.9,46,30.6c17.7-1.9,29.5-11.7,36.4-27.8C127.8,168.2,128.3,164.5,128.9,160.4L128.9,160.4z "/> <path fill="#000000" data-title="Layer 2" xs="2" d="M174.7,128.2c1.1,0.4,2.2,0.8,3.3,1.3c4.5,2,7.1,5.5,7.4,10.3c0.4,6.3,0.5,12.6,0,18.9 c-0.5,7.3-7.2,12.8-14.7,12.6c-7.3-0.2-13.6-6.1-13.9-13.3c-0.2-4.4,0-8.8-0.1-13.2c0-2.4,0-2.4-2.4-2.4c-13.5,0-27,0.1-40.6,0 c-8.8-0.1-14.1,4.8-14.6,14.5c-0.2,3.8-1,7.2-3.5,10.1c-3.9,4.5-8.9,6-14.6,4.6c-5.5-1.3-8.6-5.2-10.3-10.4 c-1.2-3.6-0.6-7.3,0.1-10.9c3.4-17.9,13.6-29.9,31.2-35.3c3.8-1.2,7.7-1.6,11.6-1.6h27.2c1.3,0,2.6-0.1,3.8-0.2 c7-0.5,11.6-5.1,12.1-13.4c0.1-0.6,0-1.3,0-1.9c0.1-7.8,6-13.9,13.8-14.2c7.8-0.3,14.3,5.2,14.8,13.1c0.7,10.7-2.6,20.3-9.1,28.9 C175.8,126.5,175,127.2,174.7,128.2L174.7,128.2z M90,113.5c-2.6-0.1-5.7,0.2-8.8-0.3c-5.3-0.9-8.7-3.9-10.1-9.1 c-1.5-5.7-1-10.9,3.5-15.1c4.4-4.2,9.7-5.5,15.4-3.3c5.6,2.2,8.8,6.5,9.1,12.5c0.3,4.5,0.1,9.1,0.1,13.7c0,1.1-0.4,1.6-1.6,1.6 C95.2,113.5,92.8,113.5,90,113.5L90,113.5z"/></g>
</svg>