<?xml version="1.0" encoding="utf-8"?>
<!-- Svg Vector Icons : http://www.onlinewebfonts.com/icon -->
<!DOCTYPE svg PUBLIC "-//W3C//DTD SVG 1.1//EN" "http://www.w3.org/Graphics/SVG/1.1/DTD/svg11.dtd">
<svg version="1.1" xmlns="http://www.w3.org/2000/svg" xmlns:xlink="http://www.w3.org/1999/xlink" x="0px" y="0px" viewBox="0 0 256 256" enable-background="new 0 0 256 256" xml:space="preserve">
<metadata> Svg Vector Icons : http://www.onlinewebfonts.com/icon </metadata>
<g><g><g id="_x33_e91140ac1bfb9903b91c1b0ca08f5cb"><path fill="#000000" d="M126.4,142.2h21.8v5.2H126c-0.2,0-0.5,0-0.7,0c-2.8,0.2-3.6,0.7-3.9,2.3c-0.1,0.2-0.1,0.5-0.1,0.7v3.5c0,0.2,0,0.5,0.1,0.7c0.4,2.1,1.9,3,5,3h9.4c2.3,0,4.7,0.4,6.6,1.2c3.7,1.4,5.5,3.5,5.5,5.7v5.7c0,2.7-1.6,4.8-5,6.4c-2,0.9-4.6,1.5-7.2,1.5h-22.3v-5.2h21.5c0.3,0,0.5,0,0.8,0c1.5-0.1,2.6-0.5,3.3-1.1c0.7-0.6,1.1-1.3,1.1-1.9v-4.5c0-0.5-0.1-0.9-0.6-1.4c-0.7-0.9-1.8-1.3-4.3-1.5c-0.2,0-0.5,0-0.8,0h-8.1c-0.7,0-1.5,0-2.2-0.1c-6.6-0.7-10.6-3.7-10.6-7.2v-4.5c0-4,2-6.3,6.6-7.7C121.6,142.4,123.3,142.2,126.4,142.2z M186.9,176.5l7.7,6.9h-9l-6.2-5.6l-6.2,0.4h-8.3c-1.4,0-2.9-0.2-4.6-0.7c-4.9-1.3-7.3-3.9-7.3-8.2v-18.5c0-4.7,3.3-7.5,9.8-8.5c0.7-0.1,1.4-0.1,2.1-0.1h14.8c0.7,0,1.4,0,2.2,0.1c6.5,0.9,9.8,3.8,9.8,8.5v18.5C191.6,173.1,190.1,175.2,186.9,176.5z M184.3,151.3c0-0.2,0-0.5-0.1-0.7c-0.5-2-2.5-3.2-5.5-3.2H167c-3.4,0-5.7,1.5-5.7,3.9v17.6c0,0.2,0.1,0.5,0.1,0.8c0.5,2.1,2.5,3.3,5.5,3.3h7.1l-6.5-5.9h9l5.7,5.1c1-0.6,1.7-1.4,2-2.5c0.1-0.2,0.1-0.5,0.1-0.7L184.3,151.3L184.3,151.3z M60.2,142.2c-5.9-1.9-9.9-0.2-11.7,3.7l-11.8,26.4L25.3,146c-1.7-4-5.8-5.6-11.7-3.7c-2.5,0.7-3.7,2.2-3.7,5.2v30.7h7.8v-30.7l12,26.8c1.4,3.3,3.4,4.4,7.2,4.4c3.8,0,5.7-1.2,7.1-4.4l12-26.8v30.7h7.8v-30.7C63.9,144.4,62.7,143,60.2,142.2z M99.6,153v20.1c-0.1,0-14.7,0-16.9,0c-4.3-0.1-4.6-2.2-4.6-3.1v-16.9h-7.8c0.2,0.2,0,17.1,0,17.5c0.1,3.9,5,7.2,12.6,7.3h16.5v2c0,0.8,0.6,3.3-4.4,3.9c-0.1,0-24.5,0-24.6,0v5.2h24.5c3.9-0.1,12.4-1.6,12.3-8.4c0-0.1,0-27.6,0-27.6L99.6,153L99.6,153z M241.2,173.1l1.9,2.9h-1.3l-1.7-2.8h-1v2.8H238v-6.5h2.6c1.6,0,2.5,0.6,2.5,1.9C243,172.5,242.2,173,241.2,173.1z M240.2,172.3c0.8,0,1.5-0.1,1.5-1c0-0.8-0.8-0.9-1.4-0.9h-1.3v1.9H240.2z M246,172.7c0,3.4-2.7,5.7-5.7,5.7c-3,0-5.7-2.3-5.7-5.7s2.7-5.7,5.7-5.7C243.3,167,246,169.3,246,172.7z M244.7,172.7c0-2.6-2-4.5-4.5-4.5c-2.5,0-4.5,2-4.5,4.5c0,2.6,2,4.5,4.5,4.5C242.7,177.3,244.7,175.3,244.7,172.7z M177,81.8c-1,0-1.7,0.1-2.5,0.3c0,0,0,0.1,0,0.1c0,0,0.1,0,0.1,0c0.5,1,1.3,1.6,1.9,2.5c0.5,1,0.9,1.9,1.3,2.8c0,0,0.1-0.1,0.1-0.1c0.8-0.6,1.2-1.5,1.2-3c-0.3-0.4-0.4-0.8-0.7-1.2C178.2,82.6,177.5,82.3,177,81.8z M242.7,151.5c0.7,0.5,1.1,1.2,1.9,1.5c0,0,0-0.1,0-0.1c-0.4-0.6-0.6-1.3-0.9-1.9c-0.6-0.6-1.2-1.2-1.8-1.8c-1.7-2.3-3.9-4.3-6.3-6c-1.9-1.3-6-3.1-6.8-5.3c0,0-0.1-0.1-0.1-0.1c1.3-0.1,2.9-0.6,4.1-0.9c2-0.6,3.9-0.4,6-0.9c1-0.3,1.9-0.6,2.9-0.8c0-0.2,0-0.4,0-0.6c-1.1-1.1-1.8-2.6-3-3.5c-3-2.6-6.4-5.2-9.8-7.3c-1.9-1.2-4.2-2-6.3-3c-0.7-0.3-1.9-0.5-2.3-1.1c-1.1-1.3-1.6-3.1-2.5-4.6c-1.7-3.3-3.4-6.9-4.9-10.3c-1-2.4-1.7-4.7-3-6.8c-6.2-10.1-12.8-16.3-23.1-22.3c-2.2-1.3-4.8-1.8-7.6-2.5c-1.5-0.1-3-0.2-4.5-0.3c-0.9-0.4-1.9-1.5-2.7-2c-3.4-2.1-12.2-6.8-14.7-0.7c-1.6,3.9,2.4,7.7,3.8,9.7c1,1.4,2.3,2.9,3,4.5c0.5,1,0.6,2,1,3.1c1,2.7,1.9,5.6,3.1,8c0.7,1.3,1.3,2.6,2.2,3.7c0.5,0.7,1.3,1,1.5,2c-0.8,1.2-0.9,3-1.3,4.5c-2.1,6.7-1.3,15,1.8,20c0.9,1.5,3.2,4.8,6.3,3.5c2.7-1.1,2.1-4.5,2.9-7.5c0.2-0.7,0.1-1.2,0.4-1.6c0,0,0,0.1,0,0.1c0.8,1.6,1.6,3.3,2.5,4.9c1.8,2.9,5,6,7.8,8c1.4,1.1,2.5,2.9,4.4,3.5c0,0,0-0.1,0-0.1c0,0-0.1,0-0.1,0c-0.4-0.6-0.9-0.8-1.3-1.2c-1.1-1-2.2-2.3-3.1-3.5c-2.5-3.4-4.7-7-6.6-10.9c-1-1.8-1.8-3.9-2.6-5.7c-0.3-0.7-0.3-1.8-0.9-2.2c-0.9,1.4-2.2,2.5-2.9,4.1c-1.1,2.6-1.2,5.7-1.6,9c-0.2,0.1-0.1,0-0.3,0.1c-1.9-0.5-2.6-2.4-3.3-4.1c-1.8-4.2-2.1-11-0.6-15.9c0.4-1.3,2.2-5.2,1.5-6.4c-0.4-1.2-1.5-1.8-2.2-2.7c-0.8-1.1-1.6-2.5-2.2-3.8c-1.4-3.3-2.1-7-3.7-10.3c-0.7-1.6-2-3.2-3-4.6c-1.1-1.6-2.4-2.7-3.3-4.6c-0.3-0.7-0.7-1.8-0.3-2.5c0.1-0.5,0.4-0.7,0.8-0.8c0.8-0.6,3,0.2,3.8,0.6c2.2,0.9,4,1.8,5.9,3c0.9,0.6,1.8,1.7,2.8,2c0.4,0,0.8,0,1.2,0c1.9,0.4,4.1,0.1,5.9,0.7c3.2,1,6,2.5,8.6,4.1c7.8,4.9,14.2,12,18.6,20.4c0.7,1.3,1,2.6,1.6,4.1c1.3,2.9,2.8,5.9,4.1,8.7c1.3,2.8,2.5,5.7,4.2,8c0.9,1.2,4.5,1.9,6.1,2.6c1.1,0.5,3,1,4.1,1.6c2,1.3,4,2.7,6,4.1c1,0.7,3.9,2.2,4.1,3.4c-4.8-0.1-8.4,0.3-11.6,1.6c-0.9,0.4-2.3,0.4-2.5,1.5c0.5,0.5,0.6,1.3,1,1.9c0.7,1.2,2,2.8,3.1,3.7c1.2,0.9,2.5,1.9,3.8,2.7c2.3,1.4,5,2.2,7.2,3.7C240.1,149.5,241.5,150.6,242.7,151.5z M204.2,169v-26.8h-7.8V169c0,5.3,4,8.3,12,8.9c0.7,0,1.5,0.1,2.2,0.1h20.3v-5.2h-20.4C205.9,172.9,204.2,171.7,204.2,169z"/></g></g></g>
</svg>